<svg width="373" height="373" viewBox="0 0 373 373" fill="none" xmlns="http://www.w3.org/2000/svg">
<path d="M186.5 6.16535C186.5 2.76036 183.739 -0.0105767 180.335 0.101943C145.608 1.25017 111.845 12.0813 82.8862 31.431C52.2165 51.9239 28.3123 81.0512 14.1966 115.13C0.0808086 149.208 -3.61251 186.707 3.58363 222.884C10.7798 259.062 28.5422 292.293 54.6247 318.375C80.7072 344.458 113.938 362.22 150.116 369.417C186.293 376.613 223.792 372.919 257.871 358.804C291.949 344.688 321.076 320.784 341.569 290.114C360.919 261.155 371.75 227.393 372.898 192.665C373.011 189.262 370.24 186.5 366.835 186.5H310.162C306.757 186.5 304.013 189.262 303.835 192.663C302.728 213.737 295.961 234.167 284.195 251.777C271.284 271.1 252.934 286.159 231.464 295.052C209.994 303.945 186.37 306.272 163.578 301.739C140.786 297.205 119.85 286.015 103.418 269.582C86.9856 253.15 75.7952 232.214 71.2616 209.422C66.728 186.63 69.0548 163.006 77.9478 141.536C86.8408 120.067 101.901 101.716 121.223 88.8056C138.833 77.0388 159.263 70.2723 180.337 69.1656C183.738 68.987 186.5 66.2436 186.5 62.8386V6.16535Z" fill="black"/>
<path d="M260.998 187.014H260.997C260.946 201.709 256.566 216.066 248.399 228.288C240.185 240.582 228.51 250.163 214.851 255.821C201.191 261.479 186.16 262.959 171.66 260.075C157.159 257.19 143.839 250.071 133.384 239.616C122.93 229.162 115.81 215.842 112.926 201.341C110.041 186.84 111.521 171.809 117.179 158.15C122.837 144.49 132.419 132.816 144.712 124.601C156.935 116.435 171.291 112.054 185.987 112.004V112.003H260.998V187.014Z" fill="black"/>
<path d="M304.195 100.165C304.195 96.7603 306.954 94 310.357 94H366.839C370.242 94 373 96.7603 373 100.165V156.68C373 160.085 370.242 162.846 366.839 162.846H310.357C306.954 162.846 304.195 160.085 304.195 156.68V100.165Z" fill="black"/>
<path d="M304.195 6.16529C304.195 2.76029 306.954 0 310.357 0H366.839C370.242 0 373 2.76029 373 6.16529V62.6804C373 66.0854 370.242 68.8457 366.839 68.8457H310.357C306.954 68.8457 304.195 66.0854 304.195 62.6804V6.16529Z" fill="black"/>
<path d="M211.25 6.16529C211.25 2.76029 214.009 0 217.412 0H273.893C277.296 0 280.055 2.76029 280.055 6.16529V62.6804C280.055 66.0854 277.296 68.8457 273.893 68.8457H217.412C214.009 68.8457 211.25 66.0854 211.25 62.6804V6.16529Z" fill="black"/>
</svg>
