<svg width="1741" height="373" viewBox="0 0 1741 373" fill="none" xmlns="http://www.w3.org/2000/svg">
<path d="M1590.57 319.744C1587.66 319.744 1586.21 318.293 1586.21 315.392V120.096C1586.21 117.376 1587.66 116.016 1590.57 116.016H1624.57C1627.65 116.016 1629.19 117.376 1629.19 120.096L1629.73 132.88C1634.81 126.533 1640.98 121.728 1648.23 118.464C1655.66 115.019 1663.92 113.296 1672.98 113.296C1686.4 113.296 1698.1 116.469 1708.07 122.816C1718.22 128.981 1726.11 137.685 1731.73 148.928C1737.36 159.989 1740.17 173.045 1740.17 188.096C1740.17 202.965 1737.36 216.112 1731.73 227.536C1726.11 238.779 1718.22 247.573 1708.07 253.92C1698.1 260.085 1686.4 263.168 1672.98 263.168C1657.93 263.168 1645.33 258.544 1635.17 249.296V315.392C1635.17 318.293 1633.72 319.744 1630.82 319.744H1590.57ZM1661.01 220.192C1669.9 220.192 1677.06 217.2 1682.5 211.216C1687.94 205.232 1690.66 197.525 1690.66 188.096C1690.66 178.667 1687.94 171.051 1682.5 165.248C1677.06 159.264 1669.9 156.272 1661.01 156.272C1652.13 156.272 1644.97 159.264 1639.53 165.248C1634.09 171.051 1631.37 178.667 1631.37 188.096C1631.37 197.525 1634.09 205.232 1639.53 211.216C1644.97 217.2 1652.13 220.192 1661.01 220.192Z" fill="black"/>
<path d="M1467.82 263.168C1454.4 263.168 1442.61 260.085 1432.46 253.92C1422.49 247.573 1414.69 238.779 1409.07 227.536C1403.45 216.112 1400.64 202.965 1400.64 188.096C1400.64 173.045 1403.45 159.989 1409.07 148.928C1414.69 137.685 1422.49 128.981 1432.46 122.816C1442.61 116.469 1454.4 113.296 1467.82 113.296C1476.89 113.296 1485.05 115.019 1492.3 118.464C1499.73 121.728 1505.99 126.533 1511.07 132.88L1511.61 120.096C1511.61 117.376 1513.06 116.016 1515.96 116.016H1550.24C1553.14 116.016 1554.59 117.376 1554.59 120.096V256.096C1554.59 258.997 1553.14 260.448 1550.24 260.448H1515.96C1513.06 260.448 1511.61 258.997 1511.61 256.096L1511.07 243.312C1500.55 256.549 1486.13 263.168 1467.82 263.168ZM1479.79 220.192C1488.67 220.192 1495.84 217.2 1501.28 211.216C1506.72 205.232 1509.44 197.525 1509.44 188.096C1509.44 178.667 1506.72 171.051 1501.28 165.248C1495.84 159.264 1488.67 156.272 1479.79 156.272C1470.9 156.272 1463.74 159.264 1458.3 165.248C1452.86 171.051 1450.14 178.667 1450.14 188.096C1450.14 197.525 1452.86 205.232 1458.3 211.216C1463.74 217.2 1470.9 220.192 1479.79 220.192Z" fill="black"/>
<path d="M1152.9 260.448C1150 260.448 1148.55 258.997 1148.55 256.096V65.1518C1148.55 62.2505 1150 60.7998 1152.9 60.7998H1196.96C1199.32 60.7998 1200.95 61.7971 1201.86 63.7918L1261.97 163.888L1320.45 63.7918C1321.54 61.7971 1323.17 60.7998 1325.35 60.7998H1368.59C1371.5 60.7998 1372.95 62.2505 1372.95 65.1518V256.096C1372.95 258.997 1371.5 260.448 1368.59 260.448H1328.61C1325.71 260.448 1324.26 258.997 1324.26 256.096V142.672L1278.29 219.376C1277.38 221.37 1275.75 222.368 1273.39 222.368H1248.1C1245.92 222.368 1244.29 221.37 1243.2 219.376L1197.23 144.576V256.096C1197.23 258.997 1195.78 260.448 1192.88 260.448H1152.9Z" fill="black"/>
<path d="M1026.62 263.168C1013.2 263.168 1001.41 260.085 991.257 253.92C981.283 247.573 973.486 238.779 967.865 227.536C962.243 216.112 959.433 202.965 959.433 188.096C959.433 173.045 962.243 159.989 967.865 148.928C973.486 137.685 981.283 128.981 991.257 122.816C1001.41 116.469 1013.2 113.296 1026.62 113.296C1035.68 113.296 1043.84 115.019 1051.1 118.464C1058.53 121.728 1064.79 126.533 1069.86 132.88L1070.41 120.096C1070.41 117.376 1071.86 116.016 1074.76 116.016H1109.03C1111.93 116.016 1113.38 117.376 1113.38 120.096V256.096C1113.38 258.997 1111.93 260.448 1109.03 260.448H1074.76C1071.86 260.448 1070.41 258.997 1070.41 256.096L1069.86 243.312C1059.35 256.549 1044.93 263.168 1026.62 263.168ZM1038.58 220.192C1047.47 220.192 1054.63 217.2 1060.07 211.216C1065.51 205.232 1068.23 197.525 1068.23 188.096C1068.23 178.667 1065.51 171.051 1060.07 165.248C1054.63 159.264 1047.47 156.272 1038.58 156.272C1029.7 156.272 1022.54 159.264 1017.1 165.248C1011.66 171.051 1008.94 178.667 1008.94 188.096C1008.94 197.525 1011.66 205.232 1017.1 211.216C1022.54 217.2 1029.7 220.192 1038.58 220.192Z" fill="black"/>
<path d="M852.128 260.448C849.227 260.448 847.776 258.998 847.776 256.096V120.096C847.776 117.376 849.227 116.016 852.128 116.016H886.128C889.211 116.016 890.752 117.376 890.752 120.096L891.568 134.784C896.464 127.531 902.63 122.272 910.064 119.008C917.499 115.744 925.478 114.112 934 114.112C935.995 114.112 937.808 114.203 939.44 114.384C941.254 114.566 942.886 114.838 944.336 115.2C946.875 116.107 948.144 117.739 948.144 120.096V157.36C948.144 160.262 946.512 161.44 943.248 160.896C941.435 160.534 939.35 160.262 936.992 160.08C934.816 159.718 932.278 159.536 929.376 159.536C924.662 159.536 919.766 160.624 914.688 162.8C909.611 164.795 905.35 168.059 901.904 172.592C898.459 177.126 896.736 182.928 896.736 190V256.096C896.736 258.998 895.286 260.448 892.384 260.448H852.128Z" fill="black"/>
<path d="M743.951 260.448C741.231 260.448 739.871 258.997 739.871 256.096V157.904H723.007C720.106 157.904 718.655 156.453 718.655 153.552V120.912C718.655 118.011 720.106 116.56 723.007 116.56H739.871V116.016C739.871 97.7013 744.586 82.832 754.015 71.408C763.445 59.8027 777.498 54 796.175 54C807.781 54 818.026 56.448 826.911 61.344C835.978 66.24 843.503 73.9467 849.487 84.464C850.575 87.184 849.85 89.088 847.311 90.176L819.567 102.96C817.21 103.867 815.306 103.413 813.855 101.6C812.042 99.2427 810.229 97.7013 808.415 96.976C806.602 96.0693 804.426 95.616 801.887 95.616C797.535 95.616 794.09 97.248 791.551 100.512C789.013 103.595 787.743 108.309 787.743 114.656L788.015 116.56H820.383C823.285 116.56 824.735 118.011 824.735 120.912V153.552C824.735 156.453 823.285 157.904 820.383 157.904H788.831V256.096C788.831 258.997 787.381 260.448 784.479 260.448H743.951Z" fill="black"/>
<path d="M562.331 260.448C559.43 260.448 557.979 258.997 557.979 256.096V120.096C557.979 117.376 559.43 116.016 562.331 116.016H596.331C599.414 116.016 600.955 117.376 600.955 120.096L601.499 132.88C606.939 126.352 613.558 121.456 621.355 118.192C629.153 114.928 637.766 113.296 647.195 113.296C664.422 113.296 677.659 118.011 686.907 127.44C696.155 136.688 700.779 149.653 700.779 166.336V256.096C700.779 258.997 699.329 260.448 696.428 260.448H656.171C653.27 260.448 651.82 258.997 651.82 256.096V184.56C651.82 174.405 650.187 167.152 646.923 162.8C643.659 158.448 638.401 156.272 631.147 156.272C624.075 156.272 618.273 158.901 613.74 164.16C609.206 169.419 606.939 177.397 606.939 188.096V256.096C606.939 258.997 605.489 260.448 602.587 260.448H562.331Z" fill="black"/>
<path d="M476.352 260.448C473.451 260.448 472 258.997 472 256.096V65.1518C472 62.2505 473.451 60.7998 476.352 60.7998H518.512C521.413 60.7998 522.864 62.2505 522.864 65.1518V256.096C522.864 258.997 521.413 260.448 518.512 260.448H476.352Z" fill="black"/>
<path d="M186.5 6.16535C186.5 2.76036 183.739 -0.0105767 180.335 0.101943C145.608 1.25017 111.845 12.0813 82.8862 31.431C52.2165 51.9239 28.3123 81.0512 14.1966 115.13C0.0808086 149.208 -3.61251 186.707 3.58363 222.884C10.7798 259.062 28.5422 292.293 54.6247 318.375C80.7072 344.458 113.938 362.22 150.116 369.417C186.293 376.613 223.792 372.919 257.871 358.804C291.949 344.688 321.076 320.784 341.569 290.114C360.919 261.155 371.75 227.393 372.898 192.665C373.011 189.262 370.24 186.5 366.835 186.5H310.162C306.757 186.5 304.013 189.262 303.835 192.663C302.728 213.737 295.961 234.167 284.195 251.777C271.284 271.1 252.934 286.159 231.464 295.052C209.994 303.945 186.37 306.272 163.578 301.739C140.786 297.205 119.85 286.015 103.418 269.582C86.9856 253.15 75.7952 232.214 71.2616 209.422C66.728 186.63 69.0548 163.006 77.9478 141.536C86.8408 120.067 101.901 101.716 121.223 88.8056C138.833 77.0388 159.263 70.2723 180.337 69.1656C183.738 68.987 186.5 66.2436 186.5 62.8386V6.16535Z" fill="black"/>
<path d="M260.998 187.014H260.997C260.946 201.709 256.566 216.066 248.399 228.288C240.185 240.582 228.51 250.163 214.851 255.821C201.191 261.479 186.16 262.959 171.66 260.075C157.159 257.19 143.839 250.071 133.384 239.616C122.93 229.162 115.81 215.842 112.926 201.341C110.041 186.84 111.521 171.809 117.179 158.15C122.837 144.49 132.419 132.816 144.712 124.601C156.935 116.435 171.291 112.054 185.987 112.004V112.003H260.998V187.014Z" fill="black"/>
<path d="M304.195 100.165C304.195 96.7603 306.954 94 310.357 94H366.839C370.242 94 373 96.7603 373 100.165V156.68C373 160.085 370.242 162.846 366.839 162.846H310.357C306.954 162.846 304.195 160.085 304.195 156.68V100.165Z" fill="black"/>
<path d="M304.195 6.16529C304.195 2.76029 306.954 0 310.357 0H366.839C370.242 0 373 2.76029 373 6.16529V62.6804C373 66.0854 370.242 68.8457 366.839 68.8457H310.357C306.954 68.8457 304.195 66.0854 304.195 62.6804V6.16529Z" fill="black"/>
<path d="M211.25 6.16529C211.25 2.76029 214.009 0 217.412 0H273.893C277.296 0 280.055 2.76029 280.055 6.16529V62.6804C280.055 66.0854 277.296 68.8457 273.893 68.8457H217.412C214.009 68.8457 211.25 66.0854 211.25 62.6804V6.16529Z" fill="black"/>
</svg>
